<?xml version="1.0" standalone="no"?>
<svg xmlns:xlink="http://www.w3.org/1999/xlink" id="wave" style="transform:rotate(0deg); transition: 0.3s" viewBox="0 0 1440 240" version="1.1" xmlns="http://www.w3.org/2000/svg"><defs><linearGradient id="sw-gradient-0" x1="0" x2="0" y1="1" y2="0"><stop stop-color="rgba(33, 37, 41, 1)" offset="0%"/><stop stop-color="rgba(41, 46, 51, 1)" offset="100%"/></linearGradient></defs><path style="transform:translate(0, 0px); opacity:1" fill="url(#sw-gradient-0)" d="M0,216L10.9,212C21.8,208,44,200,65,192C87.3,184,109,176,131,148C152.7,120,175,72,196,64C218.2,56,240,88,262,120C283.6,152,305,184,327,192C349.1,200,371,184,393,168C414.5,152,436,136,458,132C480,128,502,136,524,136C545.5,136,567,128,589,136C610.9,144,633,168,655,176C676.4,184,698,176,720,168C741.8,160,764,152,785,160C807.3,168,829,192,851,204C872.7,216,895,216,916,208C938.2,200,960,184,982,156C1003.6,128,1025,88,1047,96C1069.1,104,1091,160,1113,168C1134.5,176,1156,136,1178,124C1200,112,1222,128,1244,116C1265.5,104,1287,64,1309,60C1330.9,56,1353,88,1375,104C1396.4,120,1418,120,1440,116C1461.8,112,1484,104,1505,88C1527.3,72,1549,48,1560,36L1570.9,24L1570.9,240L1560,240C1549.1,240,1527,240,1505,240C1483.6,240,1462,240,1440,240C1418.2,240,1396,240,1375,240C1352.7,240,1331,240,1309,240C1287.3,240,1265,240,1244,240C1221.8,240,1200,240,1178,240C1156.4,240,1135,240,1113,240C1090.9,240,1069,240,1047,240C1025.5,240,1004,240,982,240C960,240,938,240,916,240C894.5,240,873,240,851,240C829.1,240,807,240,785,240C763.6,240,742,240,720,240C698.2,240,676,240,655,240C632.7,240,611,240,589,240C567.3,240,545,240,524,240C501.8,240,480,240,458,240C436.4,240,415,240,393,240C370.9,240,349,240,327,240C305.5,240,284,240,262,240C240,240,218,240,196,240C174.5,240,153,240,131,240C109.1,240,87,240,65,240C43.6,240,22,240,11,240L0,240Z"/><defs><linearGradient id="sw-gradient-1" x1="0" x2="0" y1="1" y2="0"><stop stop-color="rgba(255, 0, 102, 1)" offset="0%"/><stop stop-color="rgba(255, 0, 102, 1)" offset="100%"/></linearGradient></defs><path style="transform:translate(0, 50px); opacity:0.9" fill="url(#sw-gradient-1)" d="M0,24L10.9,52C21.8,80,44,136,65,164C87.3,192,109,192,131,176C152.7,160,175,128,196,108C218.2,88,240,80,262,84C283.6,88,305,104,327,124C349.1,144,371,168,393,168C414.5,168,436,144,458,144C480,144,502,168,524,164C545.5,160,567,128,589,104C610.9,80,633,64,655,48C676.4,32,698,16,720,16C741.8,16,764,32,785,60C807.3,88,829,128,851,132C872.7,136,895,104,916,92C938.2,80,960,88,982,96C1003.6,104,1025,112,1047,124C1069.1,136,1091,152,1113,164C1134.5,176,1156,184,1178,172C1200,160,1222,128,1244,96C1265.5,64,1287,32,1309,16C1330.9,0,1353,0,1375,32C1396.4,64,1418,128,1440,144C1461.8,160,1484,128,1505,104C1527.3,80,1549,64,1560,56L1570.9,48L1570.9,240L1560,240C1549.1,240,1527,240,1505,240C1483.6,240,1462,240,1440,240C1418.2,240,1396,240,1375,240C1352.7,240,1331,240,1309,240C1287.3,240,1265,240,1244,240C1221.8,240,1200,240,1178,240C1156.4,240,1135,240,1113,240C1090.9,240,1069,240,1047,240C1025.5,240,1004,240,982,240C960,240,938,240,916,240C894.5,240,873,240,851,240C829.1,240,807,240,785,240C763.6,240,742,240,720,240C698.2,240,676,240,655,240C632.7,240,611,240,589,240C567.3,240,545,240,524,240C501.8,240,480,240,458,240C436.4,240,415,240,393,240C370.9,240,349,240,327,240C305.5,240,284,240,262,240C240,240,218,240,196,240C174.5,240,153,240,131,240C109.1,240,87,240,65,240C43.6,240,22,240,11,240L0,240Z"/><defs><linearGradient id="sw-gradient-2" x1="0" x2="0" y1="1" y2="0"><stop stop-color="rgba(33, 37, 41, 1)" offset="0%"/><stop stop-color="rgba(33, 37, 41, 1)" offset="100%"/></linearGradient></defs><path style="transform:translate(0, 100px); opacity:0.8" fill="url(#sw-gradient-2)" d="M0,144L10.9,132C21.8,120,44,96,65,76C87.3,56,109,40,131,44C152.7,48,175,72,196,84C218.2,96,240,96,262,96C283.6,96,305,96,327,104C349.1,112,371,128,393,132C414.5,136,436,128,458,140C480,152,502,184,524,200C545.5,216,567,216,589,200C610.9,184,633,152,655,128C676.4,104,698,88,720,76C741.8,64,764,56,785,68C807.3,80,829,112,851,108C872.7,104,895,64,916,60C938.2,56,960,88,982,108C1003.6,128,1025,136,1047,136C1069.1,136,1091,128,1113,104C1134.5,80,1156,40,1178,52C1200,64,1222,128,1244,136C1265.5,144,1287,96,1309,76C1330.9,56,1353,64,1375,92C1396.4,120,1418,168,1440,172C1461.8,176,1484,136,1505,112C1527.3,88,1549,80,1560,76L1570.9,72L1570.9,240L1560,240C1549.1,240,1527,240,1505,240C1483.6,240,1462,240,1440,240C1418.2,240,1396,240,1375,240C1352.7,240,1331,240,1309,240C1287.3,240,1265,240,1244,240C1221.8,240,1200,240,1178,240C1156.4,240,1135,240,1113,240C1090.9,240,1069,240,1047,240C1025.5,240,1004,240,982,240C960,240,938,240,916,240C894.5,240,873,240,851,240C829.1,240,807,240,785,240C763.6,240,742,240,720,240C698.2,240,676,240,655,240C632.7,240,611,240,589,240C567.3,240,545,240,524,240C501.8,240,480,240,458,240C436.4,240,415,240,393,240C370.9,240,349,240,327,240C305.5,240,284,240,262,240C240,240,218,240,196,240C174.5,240,153,240,131,240C109.1,240,87,240,65,240C43.6,240,22,240,11,240L0,240Z"/></svg>